<?xml version="1.0" standalone="no"?>
<!DOCTYPE svg PUBLIC "-//W3C//DTD SVG 20010904//EN"
 "http://www.w3.org/TR/2001/REC-SVG-20010904/DTD/svg10.dtd">
<svg version="1.0" xmlns="http://www.w3.org/2000/svg"
 width="260.000000pt" height="260.000000pt" viewBox="0 0 260.000000 260.000000"
 preserveAspectRatio="xMidYMid meet">
<metadata>
Created by potrace 1.11, written by Peter Selinger 2001-2013
</metadata>
<g transform="translate(0.000000,260.000000) scale(0.100000,-0.100000)"
fill="#000000" stroke="none">
<path d="M750 2584 c30 -8 73 -26 96 -39 61 -36 139 -126 166 -193 22 -55 23
-68 26 -424 l3 -366 -392 -588 -391 -587 5 -50 c10 -77 86 -223 106 -201 4 5
214 324 465 709 252 385 461 700 466 700 5 0 214 -315 466 -700 251 -385 461
-704 465 -709 20 -22 96 124 106 201 l5 50 -391 587 -392 588 3 366 c3 356 4
369 26 424 27 67 105 157 166 193 23 13 66 31 96 39 50 13 1 15 -550 15 -551
0 -600 -2 -550 -15z"/>
<path d="M260 1559 l0 -912 325 456 326 455 -3 364 c-3 404 -3 399 -75 471
-68 69 -82 72 -340 75 l-233 3 0 -912z"/>
<path d="M1864 2457 c-74 -28 -138 -93 -162 -166 -8 -23 -12 -146 -12 -384 l0
-350 325 -455 325 -455 0 911 0 912 -222 -1 c-145 0 -234 -5 -254 -12z"/>
<path d="M925 600 c-201 -309 -368 -567 -371 -574 -3 -8 4 -16 18 -20 13 -3
340 -6 728 -6 388 0 715 3 728 6 14 4 21 12 18 20 -11 28 -739 1134 -746 1134
-4 0 -173 -252 -375 -560z"/>
</g>
</svg>
